<svg xmlns="http://www.w3.org/2000/svg" viewBox="0 0 652 652"><path d="M170.4 547.1c-.1-.7-.2-2.5-3.1-2.5-2.1 0-2.8 1.3-2.8 2.2 0 1.8 2.4 2.8 5 3.5 5.6 1.5 11.5 3.2 11.5 10.3 0 6.9-6.1 11.2-13.4 11.2-5 0-12.5-2.2-13.4-10.9h9.7c.4 3 3.3 3 3.7 3 1.7 0 3.4-.9 3.4-2.5 0-2.6-2.4-2.8-8.7-5.3-4.3-1.4-7.8-4.1-7.8-8.6 0-6.5 5.9-10.8 12.7-10.8 4.3 0 11.8 1.7 12.6 10.4h-9.4zM205.8 536.8c11.9 0 17.7 9.4 17.7 17.5s-5.7 17.4-17.7 17.4c-11.9 0-17.7-9.4-17.7-17.4 0-8.1 5.8-17.5 17.7-17.5m0 25.7c4.3 0 7.9-3.5 7.9-8.3 0-4.8-3.6-8.3-7.9-8.3-4.2 0-7.9 3.5-7.9 8.3 0 4.9 3.7 8.3 7.9 8.3M232.8 537.9h9.1v3.5h.1c1-1.6 3.1-4.6 8.9-4.6 3.1 0 6.6 1.3 8.4 2.8 1.8 1.5 3.8 4.1 3.8 10.6v20.5h-9.8v-17.9c0-2.3 0-6.8-5.1-6.8-5.6 0-5.6 4.9-5.6 6.9v17.9h-9.8v-32.9zM308.4 570.7h-9.8v-3.6h-.1c-1.6 3.2-5.7 4.7-9.6 4.7-10.4 0-16.5-8.2-16.5-17.6 0-10.8 7.7-17.5 16.5-17.5 5.4 0 8.4 2.6 9.6 4.6h.1v-3.5h9.8v32.9zm-18-8c6.1 0 8.2-5.2 8.2-8.4 0-4-2.7-8.3-8.3-8.3-5.6 0-8.1 4.7-8.1 8.5 0 3 2.3 8.2 8.2 8.2M331.4 537.9h4.7v7.4h-4.7v25.4h-9.8v-25.4h-4.9v-7.4h4.9v-11h9.8zM344.1 537.9h9.2v3.5h.1c.8-1.6 2.5-4.6 8.2-4.6v9.9c-4.6.1-7.8 1.1-7.8 6v18.1H344v-32.9zM403.8 570.7H394v-3.6h-.1c-1.7 3.2-5.7 4.7-9.6 4.7-10.4 0-16.5-8.2-16.5-17.6 0-10.8 7.7-17.5 16.5-17.5 5.4 0 8.4 2.6 9.6 4.6h.1v-3.5h9.8v32.9zm-18-8c6.1 0 8.2-5.2 8.2-8.4 0-4-2.7-8.3-8.3-8.3-5.6 0-8.1 4.7-8.1 8.5 0 3 2.3 8.2 8.2 8.2M447.9 558.2c-1.8 7.5-8.3 13.6-17.2 13.6-9.9 0-17.6-7.8-17.6-17.6 0-9.6 7.5-17.5 17.3-17.5 8.7 0 15.7 5.7 17.4 13.8h-9.9c-1.1-2.2-3-4.6-7.1-4.6-4.7-.2-7.8 3.6-7.8 8.3 0 4.8 3.1 8.3 7.8 8.3 4.1 0 6-2.4 7.1-4.4h10zM457 526.9h9.8v14h.1c1.6-3 5-4.1 8.4-4.1 3.1 0 6.9 1.1 8.9 3.6 2.8 3.3 3.1 6.1 3.1 12v18.4h-9.8v-17.9c0-1.6 0-6.9-5.3-6.9-5.5 0-5.5 4.9-5.5 6.5v18.2H457v-43.8z"/><path d="M231.8 246.5c0-3.1 2.5-5.6 5.6-5.6H488v-75.8H169.4c-8.7 0-15.8 7.1-15.8 15.8v129.6c0 8.7 7.1 15.8 15.8 15.8h236.2c3.1 0 5.6 2.5 5.6 5.6s-2.5 5.6-5.6 5.6h-252v75.3h133.2v10.9H153.7v75.8H488v-75.8H354.8v-10.9h117.4c8.7 0 15.8-7.1 15.8-15.8V267.9c0-8.7-7.1-15.8-15.8-15.8H237.3c-3 0-5.5-2.5-5.5-5.6" fill="#f08100"/><path d="M193.6 88.1c4.7-3.3 13.9-4.8 20.3-4.8 2.8 0 5.1-2.3 5.1-5.1s-2.3-5.1-5.1-5.1c-7.7 0-19.2 1.7-26.2 6.7-10.9 7.6-12.7 15.1-12.9 15.9-.6 2.7 1.1 5.3 3.8 6 7.1 1.8 17.2 5.2 23 8.6 2.2 1.5 5.3 4.1 5.9 7.3v.2c0 .2 0 .5.1.7 0 .5-.1.8-.3.9-.1.1-.4.2-.6.2-4.3.1-20.5 0-29.2 0h-5.4c-4.2 0-6.4-2-6.4-5.8V112c0-2.8-2.3-5.1-5.1-5.1s-5.1 2.3-5.1 5.1v1.8c0 11.1 8.3 16.1 16.6 16.1h34.7c3.1 0 5.9-1.3 7.9-3.4 2.1-2.3 3.2-5.3 3-8.7-.2-3.6-1.7-7.5-4.2-10.7-4.8-6.2-17.8-11-26.1-13.5 1.4-1.7 3.4-3.6 6.2-5.5M373.1 88c-2.8 0-5.1 2.3-5.1 5.1V113c.1 1.8-.5 3.4-1.5 4.5-1.7 1.8-5 2.2-7.5 2.2-9 0-10.1-5.4-10.3-7.2V77.4c0-2.8-2.3-5.1-5.1-5.1s-5.1 2.3-5.1 5.1v35.3c0 .5.2 4.6 2.9 8.7 2.5 3.9 7.6 8.4 17.7 8.4 6.5 0 11.5-1.8 14.9-5.3 3-3.1 4.5-7.3 4.3-11.9V93.1c-.1-2.8-2.4-5.1-5.2-5.1M316.4 90.3c-6.1 0-13.9 3.1-23.1 9.3-3.9 2.6-7.7 5.2-11.3 7.7V77.4c0-2.8-2.3-5.1-5.1-5.1s-5.1 2.3-5.1 5.1v37c-3.3 2.4-7 5.1-7 5.1h-8.4V95.8c0-2.8-2.3-5.1-5.1-5.1s-5.1 2.3-5.1 5.1V123c0 .1-1.1 9.2-12.6 12.1-2.7.7-4.4 3.5-3.7 6.2.6 2.3 2.7 3.9 5 3.9.4 0 .8 0 1.3-.2 10.6-2.7 16.3-9.5 18.8-15.3h55.4c13.1 0 20-11.3 20-22.5-.3-15.3-9.9-16.9-14-16.9m-6.3 29.2h-27.7c4.8-3.4 10.7-7.4 16.6-11.4 9.8-6.6 15.1-7.5 17.4-7.5 1.4 0 3.5 0 3.5 6.7 0 .4-.2 12.2-9.8 12.2M233.6 124.7V77.4c0-2.8-2.3-5.1-5.1-5.1s-5.1 2.3-5.1 5.1v47.2c0 2.8 2.3 5.1 5.1 5.1 2.8.1 5.1-2.2 5.1-5M481 88c-2.8 0-5.1 2.3-5.1 5.1v23c0 2.5 0 3.4-5.5 3.4s-5.5-.9-5.5-3.4v-23c0-2.8-2.3-5.1-5.1-5.1s-5.1 2.3-5.1 5.1v23c0 2.5 0 3.4-5.5 3.4s-5.5-.9-5.5-3.4v-23c0-2.8-2.3-5.1-5.1-5.1s-5.1 2.3-5.1 5.1v23c0 2.5 0 3.4-5.5 3.4s-5.5-.9-5.5-3.4v-5.6-2.9c0-10.1-8.2-18.3-18.3-18.3s-18.3 8.2-18.3 18.3c0 10.1 8.2 18.3 18.3 18.3 2.8 0 5.4-.6 7.8-1.8-.7 2.6-3.1 8-12.6 10.7-2.7.8-4.3 3.6-3.5 6.3.6 2.3 2.7 3.7 4.9 3.7.5 0 .9-.1 1.4-.2 11.4-3.3 16.9-10 19-15.8 2 .6 4.2.8 6.8.8 4.5 0 8.1-.9 10.7-2.6 2.6 1.7 6.1 2.6 10.7 2.6s8.1-.9 10.7-2.6c2.6 1.7 6.1 2.6 10.7 2.6 10.5 0 15.8-4.6 15.8-13.6V93c-.4-2.7-2.7-5-5.6-5m-77.1 27.7c-4.4 0-8-3.6-8-8s3.6-8 8-8 8 3.6 8 8-3.6 8-8 8M373.1 71.8c-3.1 0-5.5 2.5-5.5 5.5 0 3.1 2.5 5.5 5.5 5.5 3.1 0 5.5-2.5 5.5-5.5s-2.5-5.5-5.5-5.5"/></svg>